<svg width="52" height="52" viewBox="0 0 52 52" fill="none" xmlns="http://www.w3.org/2000/svg">
<circle cx="26" cy="26" r="26" fill="#F6F6F6" fill-opacity="0.1"/>
<circle cx="26" cy="26" r="25.5" stroke="white" stroke-opacity="0.1"/>
<g clip-path="url(#clip0_12060_7210)">
<mask id="mask0_12060_7210" style="mask-type:luminance" maskUnits="userSpaceOnUse" x="10" y="10" width="32" height="32">
<path d="M42 10H10V42H42V10Z" fill="white"/>
</mask>
<g mask="url(#mask0_12060_7210)">
<path d="M26 10C30.2435 10 34.3132 11.6857 37.3137 14.6863C40.3143 17.6869 42 21.7565 42 26C42 30.2435 40.3143 34.3132 37.3137 37.3137C34.3132 40.3143 30.2435 42 26 42C21.7565 42 17.6869 40.3143 14.6863 37.3137C11.6857 34.3132 10 30.2435 10 26C10 21.7565 11.6857 17.6869 14.6863 14.6863C17.6869 11.6857 21.7565 10 26 10ZM14.086 22.796C13.938 22.944 13.938 22.944 14.086 23.088C13.692 23.726 12.846 23.804 12.24 23.42C11.8945 25.2646 11.9233 27.1599 12.3247 28.9932C12.7261 30.8265 13.4919 32.5603 14.5766 34.0919C15.6613 35.6234 17.0427 36.9212 18.6389 37.9084C20.235 38.8954 22.0133 39.5517 23.868 39.838L23.856 39.8279L23.616 39.7081C24.066 39.5641 24.662 39.5639 25.106 39.5639C24.958 38.688 24.958 37.962 24.958 37.0839C24.958 37.0839 21.534 34.608 21.534 33.1481C21.534 31.688 21.98 30.962 21.534 30.962C20.788 30.962 19.894 31.546 19.746 30.962C19.448 30.086 18.852 29.358 17.958 29.0681C15.908 29.0681 15.614 26.8599 15.578 24.584L15.576 23.964C15.576 23.232 14.682 23.232 14.086 22.796ZM26.846 12.026L27.018 12.072C29.286 12.764 29.352 15.052 27.49 14.772C27.49 15.498 27.49 16.372 27.342 17.248C27.192 18.708 25.4041 18.272 24.958 19C24.514 19.73 25.8519 20.458 27.342 20.166C27.7879 20.166 27.342 19.726 27.642 19.582C28.2361 19.438 28.9801 19.438 29.576 19.582C28.9692 20.8934 28.2723 22.1611 27.49 23.376C27.19 23.812 27.49 24.688 27.49 25.27C27.49 29.648 25.4039 24.25 25.106 24.396C24.808 24.688 23.47 24.104 22.874 24.104C22.278 24.104 22.574 25.27 21.98 25.27C20.788 25.27 21.086 24.978 21.086 25.414C21.086 25.998 21.232 27.166 21.232 28.9161C21.232 29.5001 22.424 28.7719 23.168 28.7719C24.062 28.7719 24.658 29.4999 25.254 29.792C26.294 30.232 27.338 31.69 28.082 31.832C28.826 31.982 28.23 33.146 29.122 33C29.568 32.856 30.1639 33.1479 30.462 33.584C30.91 34.168 30.6121 34.9001 30.016 35.336C29.1241 36.21 28.826 37.23 28.3799 39.272C28.624 39.192 28.912 39.3961 29.15 39.642C31.3916 39.1232 33.471 38.0608 35.2048 36.5485C36.9386 35.0361 38.2736 33.1203 39.0919 30.97C37.96 32.1719 36.6521 32.264 37.04 31.246C36.592 30.3721 35.9961 29.64 35.2521 28.912C33.91 27.746 32.718 25.5559 36.89 22.492C36.2439 20.848 37.8441 19.312 38.8601 20.464C37.8353 18.0831 36.1699 16.0334 34.049 14.5432C31.9281 13.0531 29.4352 12.1809 26.848 12.024L26.846 12.026Z" fill="white"/>
</g>
</g>
<defs>
<clipPath id="clip0_12060_7210">
<rect width="32" height="32" fill="white" transform="translate(10 10)"/>
</clipPath>
</defs>
</svg>
